<svg width="16" height="16" viewBox="0 0 16 16" fill="none" xmlns="http://www.w3.org/2000/svg">
<path d="M8 1.5C4.40625 1.5 1.5 4.40625 1.5 8C1.5 11.5938 4.40625 14.5 8 14.5C11.5938 14.5 14.5 11.5938 14.5 8C14.5 4.40625 11.5938 1.5 8 1.5ZM8 16C3.59375 16 0 12.4062 0 8C0 3.59375 3.59375 0 8 0C12.4062 0 16 3.59375 16 8C16 12.4062 12.4062 16 8 16ZM6.40625 9.59375C7.28125 10.4688 8.71875 10.4688 9.59375 9.59375C9.875 9.3125 10.3438 9.3125 10.6562 9.59375C10.9375 9.875 10.9375 10.375 10.6562 10.6562C9.1875 12.125 6.8125 12.125 5.34375 10.6562C3.875 9.1875 3.875 6.8125 5.34375 5.34375C6.8125 3.875 9.1875 3.875 10.6562 5.34375C10.9375 5.65625 10.9375 6.125 10.6562 6.40625C10.375 6.71875 9.875 6.71875 9.59375 6.40625C8.71875 5.53125 7.28125 5.53125 6.40625 6.40625C5.53125 7.28125 5.53125 8.71875 6.40625 9.59375Z" fill="#FFFDFF"/>
</svg>
