<svg width="36" height="36" viewBox="0 0 36 36" fill="none" xmlns="http://www.w3.org/2000/svg">
<path d="M36 18C36 27.2109 29.1094 34.8047 20.1797 35.8594V23.4844H25.0312L26.0859 18H20.1797V16.0312C20.1797 13.1484 21.3047 12.0234 24.2578 12.0234C25.1719 12.0234 25.9453 12.0234 26.3672 12.0938V7.10156C25.5234 6.89062 23.5547 6.67969 22.4297 6.67969C16.4531 6.67969 13.6406 9.49219 13.6406 15.6094V18H9.91406V23.4844H13.6406V35.5078C5.83594 33.5391 0 26.4375 0 18C0 8.08594 8.08594 0 18 0C27.9141 0 36 8.08594 36 18Z" fill="#FFFDFF"/>
</svg>
