<svg width="32" height="32" viewBox="0 0 32 32" fill="none" xmlns="http://www.w3.org/2000/svg">
<path d="M15.75 7.73438C20.25 7.73438 23.8359 11.3906 23.8359 15.8203C23.8359 20.3203 20.1797 23.9062 15.75 23.9062C11.25 23.9062 7.66406 20.25 7.66406 15.8203C7.66406 11.3203 11.3203 7.73438 15.75 7.73438ZM15.75 10.5469C12.7969 10.6172 10.4766 12.9375 10.4766 15.8203C10.5469 18.7734 12.8672 21.0938 15.75 21.0938C18.7031 21.0234 21.0234 18.7031 21.0234 15.8203C20.9531 12.8672 18.6328 10.5469 15.75 10.5469ZM22.2891 7.38281C22.2891 8.4375 23.1328 9.28125 24.1875 9.28125C25.2422 9.28125 26.0859 8.4375 26.0859 7.38281C26.0859 6.32812 25.2422 5.55469 24.1875 5.55469C23.1328 5.55469 22.2891 6.32812 22.2891 7.38281ZM31.4297 9.35156C31.5703 11.9531 31.5703 19.6875 31.4297 22.2891C31.2891 24.8203 30.7266 27.0703 28.8984 28.8984C27 30.7969 24.8203 31.3594 22.2891 31.4297C19.6875 31.6406 11.8828 31.6406 9.28125 31.4297C6.75 31.3594 4.5 30.7266 2.67188 28.8984C0.84375 27.0703 0.210938 24.8203 0.140625 22.2891C0 19.6875 0 11.8828 0.140625 9.28125C0.28125 6.82031 0.84375 4.57031 2.67188 2.74219C4.5 0.84375 6.75 0.28125 9.28125 0.140625C11.8828 0 19.6875 0 22.2891 0.140625C24.8203 0.28125 27 0.84375 28.8984 2.74219C30.7266 4.57031 31.2891 6.82031 31.4297 9.35156ZM28.0547 25.1016C28.8984 23.0625 28.6875 18.1406 28.6875 15.8203C28.6875 13.5 28.8984 8.57812 28.0547 6.53906C27.4922 5.13281 26.4375 4.07812 25.0312 3.51562C22.9922 2.74219 18.0703 2.88281 15.75 2.88281C13.5 2.88281 8.57812 2.74219 6.46875 3.51562C5.13281 4.07812 4.00781 5.13281 3.51562 6.53906C2.67188 8.57812 2.88281 13.5 2.88281 15.8203C2.88281 18.1406 2.67188 23.0625 3.51562 25.1016C4.07812 26.5078 5.13281 27.5625 6.46875 28.125C8.57812 28.8984 13.5 28.7578 15.75 28.7578C18.0703 28.7578 22.9922 28.8984 25.0312 28.125C26.4375 27.5625 27.4922 26.5078 28.0547 25.1016Z" fill="#FFFDFF"/>
</svg>
