<svg width="46" height="21" viewBox="0 0 46 21" fill="none" xmlns="http://www.w3.org/2000/svg">
<path d="M45.2109 14.2031C45.1406 15.8203 44.4375 17.2969 43.2422 18.4219C42.0469 19.5469 40.5 20.1797 38.8828 20.1094H23.5547C23.2031 20.1094 22.8516 19.9688 22.6406 19.7578C22.3594 19.4766 22.2188 19.1953 22.2188 18.8438V2.32031C22.2188 2.03906 22.2891 1.75781 22.5 1.54688C22.6406 1.26562 22.8516 1.125 23.1328 0.984375C23.1328 0.984375 24.5391 0 27.4922 0C29.3203 0 31.0781 0.492188 32.625 1.40625C33.8203 2.17969 34.875 3.09375 35.7188 4.21875C36.5625 5.41406 37.125 6.67969 37.4062 8.08594C37.9688 7.94531 38.5312 7.875 39.0938 7.875C39.8672 7.875 40.7109 8.01562 41.4844 8.29688C42.2578 8.64844 42.8906 9.14062 43.4531 9.70312C44.0859 10.2656 44.5078 10.9688 44.7891 11.7422C45.1406 12.5156 45.2812 13.3594 45.2109 14.2031ZM20.3203 3.375C20.3203 3.30469 20.3203 3.23438 20.3203 3.16406C20.3203 3.09375 20.25 3.02344 20.1797 3.02344C20.1797 2.95312 20.1094 2.88281 20.0391 2.88281C19.8984 2.8125 19.7578 2.8125 19.6172 2.88281C19.5469 2.88281 19.5469 2.95312 19.4766 3.02344C19.4062 3.02344 19.4062 3.09375 19.3359 3.16406C19.3359 3.23438 19.3359 3.30469 19.3359 3.375C18.9141 8.92969 18.5625 14.1328 19.3359 19.6875C19.3359 19.7578 19.4062 19.8984 19.4766 19.9688C19.6875 20.1797 19.9688 20.1797 20.1797 19.9688C20.25 19.8984 20.3203 19.7578 20.3203 19.6875C21.0938 14.0625 20.8125 9 20.3203 3.375ZM17.2266 5.27344C17.2266 5.20312 17.1562 5.0625 17.0859 4.99219C17.0156 4.92188 16.875 4.85156 16.7344 4.85156C16.5938 4.85156 16.4531 4.92188 16.3828 4.99219C16.2422 5.0625 16.2422 5.20312 16.1719 5.27344C15.6797 10.0547 15.6797 14.9062 16.1719 19.6875C16.2422 19.8281 16.3125 19.8984 16.3828 19.9688C16.4531 20.0391 16.5938 20.1094 16.7344 20.1094C16.8047 20.1094 16.9453 20.1094 17.0859 19.9688C17.1562 19.8984 17.2266 19.8281 17.2266 19.6875C17.8594 14.9062 17.8594 10.0547 17.2266 5.27344ZM14.1328 4.85156C14.1328 4.71094 14.0625 4.57031 13.9922 4.5C13.8516 4.42969 13.7812 4.35938 13.6406 4.35938C13.5 4.35938 13.3594 4.42969 13.2891 4.5C13.2188 4.57031 13.1484 4.71094 13.1484 4.85156C12.6562 9.91406 12.4453 14.625 13.1484 19.6875C13.1484 19.8281 13.1484 19.8984 13.2891 20.0391C13.3594 20.1094 13.5 20.1797 13.6406 20.1797C13.7812 20.1797 13.9219 20.1094 13.9922 20.0391C14.0625 19.8984 14.1328 19.8281 14.1328 19.6875C14.8359 14.5547 14.625 9.91406 14.1328 4.85156ZM11.0391 6.25781C11.0391 6.11719 10.9688 5.97656 10.8984 5.90625C10.8281 5.83594 10.6875 5.76562 10.5469 5.76562C10.4062 5.76562 10.2656 5.83594 10.125 5.90625C10.0547 5.97656 9.98438 6.11719 9.98438 6.25781C9.42188 10.6875 9.42188 15.2578 9.98438 19.6875C10.0547 19.8281 10.0547 19.8984 10.1953 20.0391C10.2656 20.1094 10.4062 20.1094 10.5469 20.1094C10.6172 20.1094 10.7578 20.1094 10.8281 20.0391C10.9688 19.8984 11.0391 19.8281 11.0391 19.6875C11.6719 15.2578 11.6719 10.6875 11.0391 6.25781ZM7.875 9.63281C7.875 9.49219 7.875 9.35156 7.73438 9.28125C7.66406 9.14062 7.52344 9.14062 7.38281 9.14062C7.24219 9.14062 7.10156 9.14062 7.03125 9.28125C6.96094 9.35156 6.89062 9.49219 6.89062 9.63281C6.1875 13.0781 6.53906 16.2422 6.89062 19.6875C6.96094 19.8281 7.03125 19.8984 7.10156 20.0391C7.17188 20.1094 7.3125 20.1094 7.38281 20.1094C7.52344 20.1094 7.59375 20.1094 7.73438 20.0391C7.80469 19.8984 7.875 19.8281 7.875 19.6875C8.36719 16.1719 8.71875 13.0781 7.875 9.63281ZM4.78125 9.07031C4.78125 8.92969 4.71094 8.85938 4.64062 8.71875C4.57031 8.64844 4.42969 8.64844 4.28906 8.64844C4.14844 8.64844 4.00781 8.64844 3.9375 8.71875C3.86719 8.85938 3.79688 8.92969 3.79688 9.07031C3.09375 12.5859 3.30469 15.75 3.79688 19.2656C3.86719 19.7578 4.71094 19.7578 4.78125 19.2656C5.27344 15.6797 5.55469 12.6562 4.85156 9.07031H4.78125ZM1.6875 10.8281C1.6875 10.6875 1.61719 10.5469 1.47656 10.4766C1.40625 10.4062 1.26562 10.3359 1.125 10.3359C1.05469 10.3359 0.914062 10.4062 0.773438 10.4766C0.703125 10.5469 0.632812 10.6875 0.632812 10.8281C0 13.2188 0.210938 15.1172 0.703125 17.5078C0.703125 17.6484 0.773438 17.7891 0.84375 17.8594C0.914062 17.9297 1.05469 17.9297 1.19531 17.9297C1.26562 17.9297 1.40625 17.9297 1.47656 17.8594C1.61719 17.7188 1.61719 17.6484 1.6875 17.5078C2.17969 15.1172 2.46094 13.1484 1.6875 10.8281Z" fill="#FFFDFF"/>
</svg>
