<svg width="35" height="35" viewBox="0 0 35 35" fill="none" xmlns="http://www.w3.org/2000/svg">
<path d="M17.4375 0C27.0703 0 34.875 7.80469 34.875 17.4375C34.875 27.0703 27.0703 34.875 17.4375 34.875C7.80469 34.875 0 27.0703 0 17.4375C0 7.80469 7.80469 0 17.4375 0ZM25.5234 11.8828C25.5234 11.6016 25.5234 11.3906 25.4531 11.1797C25.4531 10.9688 25.3828 10.8281 25.2422 10.6875C25.0312 10.5469 24.6797 10.4766 24.5391 10.4766C23.9062 10.4766 22.9219 10.8281 18.0703 12.8672C16.3828 13.5703 13.0078 15.0469 7.875 17.2266C7.10156 17.5781 6.60938 17.9297 6.60938 18.2109C6.53906 18.8438 7.38281 18.9844 8.50781 19.3359C9.35156 19.6172 10.5469 19.9688 11.1797 19.9688C11.7422 20.0391 12.375 19.7578 13.0781 19.3359C17.8594 16.1016 20.3203 14.4844 20.4609 14.4141C20.5312 14.4141 20.6719 14.4141 20.8125 14.4844C20.8828 14.5547 20.8828 14.7656 20.8828 14.7656C20.8125 15.1875 16.3125 19.1953 16.1016 19.4766C15.1172 20.5312 13.9922 21.0938 15.6797 22.2891C17.2266 23.2734 18.0703 23.8359 19.6172 24.8906C20.6016 25.5234 21.375 26.2969 22.3594 26.1562C22.8516 26.1562 23.2734 25.7344 23.5547 24.3984C24.1172 21.3047 25.2422 14.625 25.5234 11.8828Z" fill="#FFFDFF"/>
</svg>
