<svg width="32" height="28" viewBox="0 0 32 28" fill="none" xmlns="http://www.w3.org/2000/svg">
<path d="M31.5 6.46875C31.3594 9.49219 29.1797 13.7109 25.0312 19.0547C20.8125 24.6094 17.1562 27.4219 14.2031 27.4219C12.375 27.4219 10.8281 25.6641 9.5625 22.2891C7.03125 13.2188 5.97656 7.875 3.9375 7.875C3.72656 7.875 2.88281 8.36719 1.47656 9.35156L0 7.45312C3.65625 4.28906 7.10156 0.773438 9.28125 0.5625C11.7422 0.28125 13.2188 1.96875 13.7812 5.55469C15.8203 18.3516 16.7344 20.25 20.3906 14.4844C21.7266 12.375 22.4297 10.8281 22.5 9.70312C22.8516 6.46875 19.9688 6.75 18.0703 7.52344C19.6172 2.46094 22.5703 0 26.9297 0.140625C30.1641 0.210938 31.6406 2.32031 31.5 6.46875Z" fill="#FFFDFF"/>
</svg>
