<svg width="39" height="27" viewBox="0 0 39 27" fill="none" xmlns="http://www.w3.org/2000/svg">
<path d="M37.6172 4.21875C38.3906 7.24219 38.3906 13.5 38.3906 13.5C38.3906 13.5 38.3906 19.8281 37.6172 22.8516C37.1953 24.4688 35.8594 25.7344 34.2422 26.2266C31.2188 27 19.1953 27 19.1953 27C19.1953 27 7.17188 27 4.21875 26.2266C2.53125 25.7344 1.26562 24.4688 0.773438 22.8516C0 19.8281 0 13.5 0 13.5C0 13.5 0 7.24219 0.773438 4.21875C1.26562 2.53125 2.53125 1.26562 4.21875 0.84375C7.17188 0 19.1953 0 19.1953 0C19.1953 0 31.2188 0 34.1719 0.84375C35.8594 1.26562 37.1953 2.53125 37.6172 4.21875ZM15.2578 19.2656L25.3125 13.5L15.2578 7.80469V19.2656Z" fill="#FFFDFF"/>
</svg>
